<?xml version="1.0" encoding="utf-8"?>
<!-- Generator: Adobe Illustrator 26.0.1, SVG Export Plug-In . SVG Version: 6.00 Build 0)  -->
<svg version="1.1" id="Capa_1" xmlns="http://www.w3.org/2000/svg" xmlns:xlink="http://www.w3.org/1999/xlink" x="0px" y="0px"
	 viewBox="0 0 1366 768" style="enable-background:new 0 0 1366 768;" xml:space="preserve">
<style type="text/css">
	.st0{fill:url(#SVGID_1_);}
	.st1{fill:#FFFFFF;}
	.st2{fill-rule:evenodd;clip-rule:evenodd;fill:url(#SVGID_00000176746920580823097290000015093199004466416527_);}
	.st3{fill-rule:evenodd;clip-rule:evenodd;fill:#FFFFFF;}
	.st4{fill-rule:evenodd;clip-rule:evenodd;fill:url(#SVGID_00000035504929648364585750000002394943684348718240_);}
	.st5{fill-rule:evenodd;clip-rule:evenodd;fill:#1D252B;}
	.st6{fill-rule:evenodd;clip-rule:evenodd;fill:url(#SVGID_00000063615927676513230400000007184793753943700613_);}
	.st7{fill-rule:evenodd;clip-rule:evenodd;fill:url(#SVGID_00000085230787725841458770000007207844433017355431_);}
	.st8{fill-rule:evenodd;clip-rule:evenodd;fill:#9C0000;}
	.st9{clip-path:url(#SVGID_00000118395763090469730730000011493412325972408741_);}
	.st10{fill-rule:evenodd;clip-rule:evenodd;fill:#00E4E7;}
	.st11{clip-path:url(#SVGID_00000053513093860094601920000016992391050864768439_);}
	.st12{fill:url(#SVGID_00000158719545423514743160000016229133641067254922_);}
	.st13{fill-rule:evenodd;clip-rule:evenodd;fill:url(#SVGID_00000033329519312667712770000018336622256530575767_);}
	.st14{fill-rule:evenodd;clip-rule:evenodd;fill:url(#SVGID_00000018925115641462656850000005573766649264194987_);}
	.st15{fill-rule:evenodd;clip-rule:evenodd;fill:url(#SVGID_00000176044784788731117410000007803160856531938469_);}
	.st16{fill-rule:evenodd;clip-rule:evenodd;fill:url(#SVGID_00000060715641626829228640000005281141728423807645_);}
	.st17{clip-path:url(#SVGID_00000018917164679401564080000001547183914549280703_);}
	.st18{clip-path:url(#SVGID_00000147213131763542621420000008013707118475927213_);}
	.st19{fill:url(#SVGID_00000134208521970341933280000000422700337790985117_);}
	.st20{fill-rule:evenodd;clip-rule:evenodd;fill:url(#SVGID_00000134939095901458142380000010126763754451161216_);}
	.st21{fill-rule:evenodd;clip-rule:evenodd;fill:url(#SVGID_00000020379696027420697900000009300317186181445306_);}
	.st22{fill-rule:evenodd;clip-rule:evenodd;fill:url(#SVGID_00000132075162441127171780000014281219807297983415_);}
	.st23{fill-rule:evenodd;clip-rule:evenodd;fill:url(#SVGID_00000074417943128949800390000014491128503583883415_);}
	
		.st24{clip-path:url(#SVGID_00000087385765353143080690000018007091914298229378_);fill:url(#SVGID_00000048497824117540803290000017530483904713736344_);}
	.st25{clip-path:url(#SVGID_00000087385765353143080690000018007091914298229378_);}
	.st26{clip-path:url(#SVGID_00000024699040188620272080000013331006985673103037_);}
	.st27{clip-path:url(#SVGID_00000048492950840792117350000014011854537065957309_);}
	.st28{clip-path:url(#SVGID_00000087385765353143080690000018007091914298229378_);fill:none;}
	.st29{clip-path:url(#SVGID_00000087385765353143080690000018007091914298229378_);fill-rule:evenodd;clip-rule:evenodd;fill:none;}
	.st30{clip-path:url(#SVGID_00000085936699153323724530000011392053468860804524_);}
	.st31{fill-rule:evenodd;clip-rule:evenodd;fill:url(#SVGID_00000144325341289590288720000017987741534403176842_);}
	.st32{fill-rule:evenodd;clip-rule:evenodd;fill:url(#SVGID_00000098929640576198939780000003522487546580000653_);}
	.st33{fill-rule:evenodd;clip-rule:evenodd;fill:url(#SVGID_00000044857732593040988260000010028803540539160721_);}
	.st34{fill-rule:evenodd;clip-rule:evenodd;fill:url(#SVGID_00000047776152429118027530000012707797350823722663_);}
	
		.st35{clip-path:url(#SVGID_00000024722064799517364960000013967518260707018651_);fill:url(#SVGID_00000004536290915319786550000013419250665720538301_);}
	.st36{clip-path:url(#SVGID_00000024722064799517364960000013967518260707018651_);}
	.st37{clip-path:url(#SVGID_00000163771717717095339440000000689424069723469440_);}
</style>
<g>
	<defs>
		<circle id="SVGID_00000053518031671948773790000013155721864994666884_" cx="683" cy="384" r="134.29"/>
	</defs>
	<clipPath id="SVGID_00000029756328434361035530000008064909254523184036_">
		<use xlink:href="#SVGID_00000053518031671948773790000013155721864994666884_"  style="overflow:visible;"/>
	</clipPath>
	<g style="clip-path:url(#SVGID_00000029756328434361035530000008064909254523184036_);">
		<linearGradient id="SVGID_1_" gradientUnits="userSpaceOnUse" x1="537.5894" y1="384" x2="828.4106" y2="384">
			<stop  offset="0" style="stop-color:#930025"/>
			<stop  offset="0.1794" style="stop-color:#9A0225"/>
			<stop  offset="0.4476" style="stop-color:#AF0925"/>
			<stop  offset="0.7697" style="stop-color:#D01324"/>
			<stop  offset="1" style="stop-color:#EC1C24"/>
		</linearGradient>
		<rect x="537.59" y="232.88" class="st0" width="290.82" height="302.23"/>
		<g id="gamepad_bacord1_00000108286770931560601800000009432480482421972880_">
			<g id="gamepad_bacord2_00000026127656615348817320000010177696809854445712_">
				<g transform="matrix(0.0715168,0,0,0.0715168,473.901,290.986)">
					
						<linearGradient id="SVGID_00000035513275585522069730000014182310680557290932_" gradientUnits="userSpaceOnUse" x1="1512.7931" y1="826.3745" x2="1714.6104" y2="826.3745">
						<stop  offset="0" style="stop-color:#930025"/>
						<stop  offset="0.1794" style="stop-color:#9A0225"/>
						<stop  offset="0.4476" style="stop-color:#AF0925"/>
						<stop  offset="0.7697" style="stop-color:#D01324"/>
						<stop  offset="1" style="stop-color:#EC1C24"/>
					</linearGradient>
					<path style="fill-rule:evenodd;clip-rule:evenodd;fill:url(#SVGID_00000035513275585522069730000014182310680557290932_);" d="
						M2525.32,172.07c-64.23,7.06-173.63,2.12-266.8,0h-79.05c-8.47,0.71-16.23,0.71-23.29,1.41
						c-34.59,2.12-81.17,13.41-114.34,7.06c-1.41,1.41-2.82,2.12-4.23,2.82l-33.17,11.29c-122.81,31.06-132.7,58.58-217.4,96.7
						c-7.76,14.12-69.17,58.58-86.82,76.94l-71.99,83.29c-16.23,39.53-45.17,76.94-62.82,121.4c-8.47,21.17-17.65,45.17-24,65.64
						l-19.76,66.35c-0.71-0.71-1.41,3.53-2.12,4.94l-6.35,111.52c-11.29,323.27,241.39,602.07,558.31,651.48
						c44.47,7.06,143.99,0,170.1,7.76l148.93-38.82c18.35-13.41,78.35-35.29,105.87-50.82c28.23-15.53,81.88-50.82,113.64-52.23
						c44.47-45.17,234.34-66.35,314.8-66.35c75.52,0,277.39,24,314.8,66.35c34.59,1.41,82.58,34.59,110.11,50.11
						c36.7,19.76,72.7,36.7,115.76,53.64c207.51,60,377.62,52.23,566.07-63.52c246.33-151.05,271.04-382.56,292.21-415.03
						c5.65-69.17,12.71-108.7,10.59-184.22l-2.82-60l-12-38.82c-30.35-133.4-67.05-153.87-98.11-229.39
						c-9.18-3.53-8.47-5.65-17.65-17.65c-50.82-67.05-60.7-74.82-125.64-126.34l-15.53-16.23c-41.64-18.35-76.94-45.17-123.52-64.94
						c-28.94-12.7-123.52-33.88-140.46-46.58c-35.29,4.23-77.64-5.65-115.05-7.06c-40.94-1.41-83.99,0-124.93,0.71
						c-58.58,0-174.34,4.94-233.63-1.41H2525.32z"/>
				</g>
				<g transform="matrix(0.0715168,0,0,0.0715168,473.901,290.986)">
					<path class="st3" d="M3659.58,261.71H2214.05c-227.98,0-417.85,80.46-533.61,278.1c-241.39,410.79,106.58,941.58,609.13,837.11
						c184.93-38.11,278.1-188.46,623.25-193.4c130.58-2.12,243.51,20.47,346.56,62.11c103.76,40.94,166.58,95.29,280.92,126.34
						c472.91,130.58,874.52-381.85,638.07-817.35C4076.02,367.59,3884.74,261.71,3659.58,261.71z"/>
				</g>
				<g transform="matrix(0.0715168,0,0,0.0715168,473.901,290.986)">
					
						<linearGradient id="SVGID_00000118397524522433737000000009565074841318415785_" gradientUnits="userSpaceOnUse" x1="1808.8998" y1="826.7311" x2="1863.7701" y2="826.7311">
						<stop  offset="0" style="stop-color:#930025"/>
						<stop  offset="0.1794" style="stop-color:#9A0225"/>
						<stop  offset="0.4476" style="stop-color:#AF0925"/>
						<stop  offset="0.7697" style="stop-color:#D01324"/>
						<stop  offset="1" style="stop-color:#EC1C24"/>
					</linearGradient>
					<path style="fill-rule:evenodd;clip-rule:evenodd;fill:url(#SVGID_00000118397524522433737000000009565074841318415785_);" d="
						M2025.59,657.68c-113.64,28.23-216.69-56.47-216.69,163.75c0,160.22,30.35,181.4,216.69,170.81
						c4.94,153.87-23.29,218.1,164.46,218.1c176.46,0.71,171.52-48.7,167.28-215.28c131.99-18.35,218.81,45.88,218.81-167.28
						c-0.71-215.98-83.99-147.52-216.69-169.4c-5.65-57.88,9.18-124.93-17.65-167.28c-31.06-47.29-75.52-48-146.11-48
						C2000.18,443.11,2032.65,502.4,2025.59,657.68z"/>
				</g>
				<g transform="matrix(0.0715168,0,0,0.0715168,473.901,290.986)">
					<path class="st3" d="M1897.13,803.79l3.53,97.4c43.76,9.88,103.05,1.41,151.75,2.82c78.35,2.12,62.11,53.64,62.11,156.69
						c0,74.82,0.71,61.41,75.52,61.41c90.35-0.71,79.05,26.82,79.05-127.05c0-61.41-2.12-89.64,63.52-91.05
						c46.58-0.71,109.4,4.23,151.05-2.82l3.53-97.4c0-62.82-1.41-55.05-64.23-54.35c-24.7,0.71-103.05,2.82-122.11-2.82
						c-60-17.65-21.88-154.58-35.29-209.63c-30.35-9.18-115.05-8.47-146.11-0.71c-15.53,48.7,26.12,189.87-35.29,210.34
						c-21.88,7.06-87.52,3.53-115.76,2.82C1901.36,749.44,1897.13,737.44,1897.13,803.79z"/>
				</g>
				<g transform="matrix(0.0715168,0,0,0.0715168,473.901,290.986)">
					<path class="st5" d="M3616.53,412.76c-218.1,57.88-122.81,370.56,80.46,319.03C3910.15,678.15,3828.98,355.59,3616.53,412.76z"
						/>
				</g>
				<g transform="matrix(0.0715168,0,0,0.0715168,473.901,290.986)">
					<path class="st5" d="M3368.78,666.15c-220.92,48-139.05,372.68,74.11,321.15C3648.29,937.9,3580.53,619.57,3368.78,666.15z"/>
				</g>
				<g transform="matrix(0.0715168,0,0,0.0715168,473.901,290.986)">
					<path class="st5" d="M3872.74,668.97c-225.87,64.94-116.46,377.62,87.52,316.21c79.76-24,140.46-111.52,111.52-206.1
						C4050.61,708.5,3970.85,640.74,3872.74,668.97z"/>
				</g>
				<g transform="matrix(0.0715168,0,0,0.0715168,473.901,290.986)">
					<path class="st5" d="M3619.35,923.07c-223.75,67.05-122.11,369.85,79.05,319.74c81.17-20.47,144.69-106.58,119.28-203.28
						C3797.22,964.01,3712.52,895.55,3619.35,923.07z"/>
				</g>
				<g transform="matrix(0.0715168,0,0,0.0715168,473.901,290.986)">
					
						<linearGradient id="SVGID_00000111873481008255121020000016788039981870263689_" gradientUnits="userSpaceOnUse" x1="3040.4038" y1="486.6081" x2="3056.9673" y2="486.6081">
						<stop  offset="0" style="stop-color:#930025"/>
						<stop  offset="0.1794" style="stop-color:#9A0225"/>
						<stop  offset="0.4476" style="stop-color:#AF0925"/>
						<stop  offset="0.7697" style="stop-color:#D01324"/>
						<stop  offset="1" style="stop-color:#EC1C24"/>
					</linearGradient>
					<path style="fill-rule:evenodd;clip-rule:evenodd;fill:url(#SVGID_00000111873481008255121020000016788039981870263689_);" d="
						M3066.69,448.76c-42.35,21.88-34.59,80.46,31.06,83.29c31.06,1.41,130.58,4.23,152.46-6.35c30.35-15.53,36.7-78.35-31.76-83.29
						C3181.74,440.29,3094.92,435.35,3066.69,448.76z"/>
				</g>
				<g transform="matrix(0.0715168,0,0,0.0715168,473.901,290.986)">
					
						<linearGradient id="SVGID_00000151517213234675887560000008637571509382629271_" gradientUnits="userSpaceOnUse" x1="2577.8284" y1="486.81" x2="2594.3335" y2="486.81">
						<stop  offset="0" style="stop-color:#930025"/>
						<stop  offset="0.1794" style="stop-color:#9A0225"/>
						<stop  offset="0.4476" style="stop-color:#AF0925"/>
						<stop  offset="0.7697" style="stop-color:#D01324"/>
						<stop  offset="1" style="stop-color:#EC1C24"/>
					</linearGradient>
					<path style="fill-rule:evenodd;clip-rule:evenodd;fill:url(#SVGID_00000151517213234675887560000008637571509382629271_);" d="
						M2605.78,448.05c-41.64,16.23-38.11,77.64,19.76,83.29c22.59,2.12,137.64,2.12,154.58-3.53c38.82-13.41,43.76-79.05-21.88-84.7
						C2726.48,440.29,2629.07,438.87,2605.78,448.05z"/>
				</g>
				<g transform="matrix(0.0715168,0,0,0.0715168,473.901,290.986)">
					<path class="st3" d="M3630.64,498.87c-91.76,38.11-45.17,177.87,54.35,144.69C3780.28,611.1,3723.81,460.76,3630.64,498.87z"/>
				</g>
				<g transform="matrix(0.0715168,0,0,0.0715168,473.901,290.986)">
					<path class="st8" d="M3892.51,753.67c-102.35,30.35-52.23,175.75,43.06,146.81C4028.03,872.25,3991.32,724.03,3892.51,753.67z"
						/>
				</g>
				<g transform="matrix(0.0715168,0,0,0.0715168,473.901,290.986)">
					<path class="st3" d="M3382.9,752.97c-96.7,26.82-60.7,173.63,40.23,147.52C3520.53,875.78,3478.89,726.15,3382.9,752.97z"/>
				</g>
				<g transform="matrix(0.0715168,0,0,0.0715168,473.901,290.986)">
					<path class="st8" d="M3627.11,1014.83c-22.59,10.59-26.82,7.06-38.82,33.88c-29.64,68.47,38.11,131.99,102.35,103.05
						C3778.87,1112.24,3720.28,969.66,3627.11,1014.83z"/>
				</g>
			</g>
		</g>
		<g>
			<defs>
				<path id="SVGID_00000172415126598598273730000000912262977499603341_" d="M653.51,403.2c21.06-24.62,46.9-15.15,57.68-0.25
					c0.45,6.45-0.07,67,0.45,78.34c0.06,1.35-24.88-20.68-24.88-20.68c-1.9-1.07-4.58-1.09-6.5-0.03c0,0-27.04,22.49-27.04,21.17
					C653.23,481.75,652.34,404.57,653.51,403.2z"/>
			</defs>
			<clipPath id="SVGID_00000000199721815293763390000001194560722232177538_">
				<use xlink:href="#SVGID_00000172415126598598273730000000912262977499603341_"  style="overflow:visible;"/>
			</clipPath>
			<g style="clip-path:url(#SVGID_00000000199721815293763390000001194560722232177538_);">
				<rect x="651.55" y="383.56" class="st10" width="20.59" height="99.54"/>
				<rect x="672.14" y="383.56" class="st3" width="20.59" height="99.54"/>
				<rect x="692.74" y="383.56" class="st10" width="20.59" height="99.54"/>
			</g>
		</g>
	</g>
</g>
</svg>
